<?xml version="1.0" encoding="UTF-8" standalone="no"?>
<!-- Created with Inkscape (http://www.inkscape.org/) -->

<svg
   xmlns:osb="http://www.openswatchbook.org/uri/2009/osb"
   xmlns:dc="http://purl.org/dc/elements/1.1/"
   xmlns:cc="http://creativecommons.org/ns#"
   xmlns:rdf="http://www.w3.org/1999/02/22-rdf-syntax-ns#"
   xmlns:svg="http://www.w3.org/2000/svg"
   xmlns="http://www.w3.org/2000/svg"
   xmlns:sodipodi="http://sodipodi.sourceforge.net/DTD/sodipodi-0.dtd"
   xmlns:inkscape="http://www.inkscape.org/namespaces/inkscape"
   width="109.883"
   height="139.99979"
   viewBox="0 0 109.883 139.99979"
   id="svg2"
   version="1.1"
   inkscape:version="0.91 r13725"
   sodipodi:docname="logo13.svg"
   inkscape:export-filename="T:\apps\IGO_karine\github_igo\assets\img\logo13.png"
   inkscape:export-xdpi="90"
   inkscape:export-ydpi="90">
  <defs
     id="defs4">
    <linearGradient
       id="linearGradient4493"
       osb:paint="gradient">
      <stop
         style="stop-color:#ff0000;stop-opacity:1;"
         offset="0"
         id="stop4495" />
      <stop
         style="stop-color:#ff0000;stop-opacity:0;"
         offset="1"
         id="stop4497" />
    </linearGradient>
  </defs>
  <sodipodi:namedview
     id="base"
     pagecolor="#ffffff"
     bordercolor="#666666"
     borderopacity="1.0"
     inkscape:pageopacity="0.0"
     inkscape:pageshadow="2"
     inkscape:zoom="1.14"
     inkscape:cx="-141.21763"
     inkscape:cy="34.548087"
     inkscape:document-units="px"
     inkscape:current-layer="layer3"
     showgrid="false"
     units="px"
     fit-margin-right="0"
     inkscape:window-width="1280"
     inkscape:window-height="961"
     inkscape:window-x="-8"
     inkscape:window-y="-8"
     inkscape:window-maximized="1"
     showguides="true"
     inkscape:guide-bbox="true"
     inkscape:snap-text-baseline="true"
     fit-margin-top="0"
     fit-margin-left="0"
     fit-margin-bottom="0" />
  <metadata
     id="metadata7">
    <rdf:RDF>
      <cc:Work
         rdf:about="">
        <dc:format>image/svg+xml</dc:format>
        <dc:type
           rdf:resource="http://purl.org/dc/dcmitype/StillImage" />
        <dc:title />
      </cc:Work>
    </rdf:RDF>
  </metadata>
  <g
     inkscape:groupmode="layer"
     id="layer2"
     inkscape:label="layers"
     style="display:inline"
     transform="translate(-427.01921,-430.61104)" />
  <g
     inkscape:label="Calque 1"
     inkscape:groupmode="layer"
     id="layer1"
     transform="translate(-427.01921,-482.9732)"
     style="display:inline">
    <g
       id="g4137"
       transform="matrix(0.39420901,0,0,0.36866302,397.87675,476.99488)"
       style="fill:#006bb6;fill-opacity:1;stroke:none;stroke-opacity:1">
      <g
         id="g4139"
         style="fill:#006bb6;fill-opacity:1;stroke:none;stroke-opacity:1">
        <g
           id="g4141"
           style="fill:#006bb6;fill-opacity:1;stroke:none;stroke-opacity:1">
          <g
             id="Layer_5_6_"
             style="fill:#006bb6;fill-opacity:1;stroke:none;stroke-opacity:1">
            <g
               id="g4144"
               style="fill:#006bb6;fill-opacity:1;stroke:none;stroke-opacity:1">
              <path
                 inkscape:connector-curvature="0"
                 d="m 213.30042,16.216216 c -76.851,0 -139.373997,62.522 -139.373997,139.372004 0,58.794 33.957997,119.799 62.444997,160.622 14.292,20.479 30.477,40.41 45.572,56.114 22.725,23.642 28.994,23.642 31.355,23.642 2.44,0 7.521,0 30.006,-23.671 15.253,-16.058 31.473,-35.962 45.672,-56.05 29.059,-41.106 63.693,-102.347 63.693,-160.657 0.003,-76.850004 -62.519,-139.372004 -139.369,-139.372004 z m 0,240.078004 c -54.037,0 -97.841,-43.805 -97.841,-97.84 0,-54.035 43.804,-97.840004 97.841,-97.840004 54.036,0 97.839,43.805004 97.839,97.840004 0,54.035 -43.803,97.84 -97.839,97.84 z"
                 id="path4148"
                 style="fill:#006bb6;fill-opacity:1;stroke:none;stroke-opacity:1" />
            </g>
          </g>
        </g>
      </g>
    </g>
    <g
       id="g4150"
       transform="translate(29.978611,120.36915)" />
    <g
       id="g4152"
       transform="translate(29.978611,120.36915)" />
    <g
       id="g4154"
       transform="translate(29.978611,120.36915)" />
    <g
       id="g4156"
       transform="translate(29.978611,120.36915)" />
    <g
       id="g4158"
       transform="translate(29.978611,120.36915)" />
    <g
       id="g4160"
       transform="translate(29.978611,120.36915)" />
    <g
       id="g4162"
       transform="translate(29.978611,120.36915)" />
    <g
       id="g4164"
       transform="translate(29.978611,120.36915)" />
    <g
       id="g4166"
       transform="translate(29.978611,120.36915)" />
    <g
       id="g4168"
       transform="translate(29.978611,120.36915)" />
    <g
       id="g4170"
       transform="translate(29.978611,120.36915)" />
    <g
       id="g4172"
       transform="translate(29.978611,120.36915)" />
    <g
       id="g4174"
       transform="translate(29.978611,120.36915)" />
    <g
       id="g4176"
       transform="translate(29.978611,120.36915)" />
    <g
       id="g4178"
       transform="translate(29.978611,120.36915)" />
    <g
       id="g4281"
       transform="matrix(22.592454,-2.1853495,18.778802,15.922344,137.24863,107.66636)" />
    <g
       id="g4283"
       transform="matrix(22.592454,-2.1853495,18.778802,15.922344,137.24863,107.66636)" />
    <g
       id="g4285"
       transform="matrix(22.592454,-2.1853495,18.778802,15.922344,137.24863,107.66636)" />
    <g
       id="g4287"
       transform="matrix(22.592454,-2.1853495,18.778802,15.922344,137.24863,107.66636)" />
    <g
       id="g4289"
       transform="matrix(22.592454,-2.1853495,18.778802,15.922344,137.24863,107.66636)" />
    <g
       id="g4291"
       transform="matrix(22.592454,-2.1853495,18.778802,15.922344,137.24863,107.66636)" />
    <g
       id="g4293"
       transform="matrix(22.592454,-2.1853495,18.778802,15.922344,137.24863,107.66636)" />
    <g
       id="g4295"
       transform="matrix(22.592454,-2.1853495,18.778802,15.922344,137.24863,107.66636)" />
    <g
       id="g4297"
       transform="matrix(22.592454,-2.1853495,18.778802,15.922344,137.24863,107.66636)" />
    <g
       id="g4299"
       transform="matrix(22.592454,-2.1853495,18.778802,15.922344,137.24863,107.66636)" />
    <g
       id="g4301"
       transform="matrix(22.592454,-2.1853495,18.778802,15.922344,137.24863,107.66636)" />
    <g
       id="g4303"
       transform="matrix(22.592454,-2.1853495,18.778802,15.922344,137.24863,107.66636)" />
    <g
       id="g4305"
       transform="matrix(22.592454,-2.1853495,18.778802,15.922344,137.24863,107.66636)" />
    <g
       id="g4307"
       transform="matrix(22.592454,-2.1853495,18.778802,15.922344,137.24863,107.66636)" />
    <g
       id="g4309"
       transform="matrix(22.592454,-2.1853495,18.778802,15.922344,137.24863,107.66636)" />
    <ellipse
       style="fill:#ffffff;fill-opacity:1;fill-rule:nonzero;stroke:none;stroke-width:1.82420325;stroke-miterlimit:3.0999999;stroke-dasharray:none;stroke-opacity:1"
       id="path4491"
       cx="481.90497"
       cy="536.04938"
       rx="38.897644"
       ry="36.471172" />
  </g>
  <g
     inkscape:groupmode="layer"
     id="layer3"
     inkscape:label="texte"
     transform="translate(-427.01921,-430.61104)">
    <text
       xml:space="preserve"
       style="font-style:normal;font-variant:normal;font-weight:300;font-stretch:normal;font-size:34.52805328px;line-height:125%;font-family:Muli;-inkscape-font-specification:'Muli, Light';text-align:start;letter-spacing:0px;word-spacing:0px;writing-mode:lr-tb;text-anchor:start;display:inline;fill:#000000;fill-opacity:1;stroke:none;stroke-width:1px;stroke-linecap:butt;stroke-linejoin:miter;stroke-opacity:1"
       x="449.9949"
       y="495.74326"
       id="text5965"
       sodipodi:linespacing="125%"
       transform="scale(0.99803476,1.0019691)"><tspan
         sodipodi:role="line"
         id="tspan5967"
         x="449.9949"
         y="495.74326">IGO</tspan></text>
  </g>
</svg>
