<?xml version="1.0" encoding="UTF-8" standalone="no"?>
<!-- Created with Inkscape (http://www.inkscape.org/) -->

<svg
   xmlns:osb="http://www.openswatchbook.org/uri/2009/osb"
   xmlns:dc="http://purl.org/dc/elements/1.1/"
   xmlns:cc="http://creativecommons.org/ns#"
   xmlns:rdf="http://www.w3.org/1999/02/22-rdf-syntax-ns#"
   xmlns:svg="http://www.w3.org/2000/svg"
   xmlns="http://www.w3.org/2000/svg"
   xmlns:sodipodi="http://sodipodi.sourceforge.net/DTD/sodipodi-0.dtd"
   xmlns:inkscape="http://www.inkscape.org/namespaces/inkscape"
   width="1000mm"
   height="400mm"
   viewBox="0 0 3543.3071 1417.3228"
   id="svg8181"
   version="1.1"
   inkscape:version="0.91 r13725"
   sodipodi:docname="dessin.svg">
  <defs
     id="defs8183">
    <linearGradient
       osb:paint="gradient"
       id="linearGradient4493">
      <stop
         id="stop4495"
         offset="0"
         style="stop-color:#ff0000;stop-opacity:1;" />
      <stop
         id="stop4497"
         offset="1"
         style="stop-color:#ff0000;stop-opacity:0;" />
    </linearGradient>
  </defs>
  <sodipodi:namedview
     id="base"
     pagecolor="#ffffff"
     bordercolor="#666666"
     borderopacity="1.0"
     inkscape:pageopacity="0.0"
     inkscape:pageshadow="2"
     inkscape:zoom="0.21"
     inkscape:cx="1869.8056"
     inkscape:cy="520"
     inkscape:document-units="px"
     inkscape:current-layer="layer1"
     showgrid="false"
     inkscape:window-width="1280"
     inkscape:window-height="961"
     inkscape:window-x="-8"
     inkscape:window-y="-8"
     inkscape:window-maximized="1" />
  <metadata
     id="metadata8186">
    <rdf:RDF>
      <cc:Work
         rdf:about="">
        <dc:format>image/svg+xml</dc:format>
        <dc:type
           rdf:resource="http://purl.org/dc/dcmitype/StillImage" />
        <dc:title></dc:title>
      </cc:Work>
    </rdf:RDF>
  </metadata>
  <g
     inkscape:label="Calque 1"
     inkscape:groupmode="layer"
     id="layer1"
     transform="translate(0,364.96063)">
    <g
       id="g8781"
       transform="translate(879.94407,-1472.0583)">
      <g
         style="display:inline"
         inkscape:label="layers"
         id="layer2" />
      <g
         style="display:inline"
         transform="translate(0,-52.36216)"
         id="layer1-4"
         inkscape:label="Calque 1">
        <g
           style="fill:#006bb6;fill-opacity:1;stroke:none;stroke-opacity:1"
           transform="matrix(2.6811481,0,0,2.5074013,-89.922613,36.21971)"
           id="g4137">
          <g
             style="fill:#006bb6;fill-opacity:1;stroke:none;stroke-opacity:1"
             id="g4139">
            <g
               style="fill:#006bb6;fill-opacity:1;stroke:none;stroke-opacity:1"
               id="g4141">
              <g
                 style="fill:#006bb6;fill-opacity:1;stroke:none;stroke-opacity:1"
                 id="Layer_5_6_">
                <g
                   style="fill:#006bb6;fill-opacity:1;stroke:none;stroke-opacity:1"
                   id="g4144">
                  <path
                     style="fill:#006bb6;fill-opacity:1;stroke:none;stroke-opacity:1"
                     id="path4148"
                     d="m 213.30042,16.216216 c -76.851,0 -139.373997,62.522 -139.373997,139.372004 0,58.794 33.957997,119.799 62.444997,160.622 14.292,20.479 30.477,40.41 45.572,56.114 22.725,23.642 28.994,23.642 31.355,23.642 2.44,0 7.521,0 30.006,-23.671 15.253,-16.058 31.473,-35.962 45.672,-56.05 29.059,-41.106 63.693,-102.347 63.693,-160.657 0.003,-76.850004 -62.519,-139.372004 -139.369,-139.372004 z m 0,240.078004 c -54.037,0 -97.841,-43.805 -97.841,-97.84 0,-54.035 43.804,-97.840004 97.841,-97.840004 54.036,0 97.839,43.805004 97.839,97.840004 0,54.035 -43.803,97.84 -97.839,97.84 z"
                     inkscape:connector-curvature="0" />
                </g>
              </g>
            </g>
          </g>
        </g>
        <g
           transform="translate(29.978611,120.36915)"
           id="g4150" />
        <g
           transform="translate(29.978611,120.36915)"
           id="g4152" />
        <g
           transform="translate(29.978611,120.36915)"
           id="g4154" />
        <g
           transform="translate(29.978611,120.36915)"
           id="g4156" />
        <g
           transform="translate(29.978611,120.36915)"
           id="g4158" />
        <g
           transform="translate(29.978611,120.36915)"
           id="g4160" />
        <g
           transform="translate(29.978611,120.36915)"
           id="g4162" />
        <g
           transform="translate(29.978611,120.36915)"
           id="g4164" />
        <g
           transform="translate(29.978611,120.36915)"
           id="g4166" />
        <g
           transform="translate(29.978611,120.36915)"
           id="g4168" />
        <g
           transform="translate(29.978611,120.36915)"
           id="g4170" />
        <g
           transform="translate(29.978611,120.36915)"
           id="g4172" />
        <g
           transform="translate(29.978611,120.36915)"
           id="g4174" />
        <g
           transform="translate(29.978611,120.36915)"
           id="g4176" />
        <g
           transform="translate(29.978611,120.36915)"
           id="g4178" />
        <g
           transform="matrix(22.592454,-2.1853495,18.778802,15.922344,137.24863,107.66636)"
           id="g4281" />
        <g
           transform="matrix(22.592454,-2.1853495,18.778802,15.922344,137.24863,107.66636)"
           id="g4283" />
        <g
           transform="matrix(22.592454,-2.1853495,18.778802,15.922344,137.24863,107.66636)"
           id="g4285" />
        <g
           transform="matrix(22.592454,-2.1853495,18.778802,15.922344,137.24863,107.66636)"
           id="g4287" />
        <g
           transform="matrix(22.592454,-2.1853495,18.778802,15.922344,137.24863,107.66636)"
           id="g4289" />
        <g
           transform="matrix(22.592454,-2.1853495,18.778802,15.922344,137.24863,107.66636)"
           id="g4291" />
        <g
           transform="matrix(22.592454,-2.1853495,18.778802,15.922344,137.24863,107.66636)"
           id="g4293" />
        <g
           transform="matrix(22.592454,-2.1853495,18.778802,15.922344,137.24863,107.66636)"
           id="g4295" />
        <g
           transform="matrix(22.592454,-2.1853495,18.778802,15.922344,137.24863,107.66636)"
           id="g4297" />
        <g
           transform="matrix(22.592454,-2.1853495,18.778802,15.922344,137.24863,107.66636)"
           id="g4299" />
        <g
           transform="matrix(22.592454,-2.1853495,18.778802,15.922344,137.24863,107.66636)"
           id="g4301" />
        <g
           transform="matrix(22.592454,-2.1853495,18.778802,15.922344,137.24863,107.66636)"
           id="g4303" />
        <g
           transform="matrix(22.592454,-2.1853495,18.778802,15.922344,137.24863,107.66636)"
           id="g4305" />
        <g
           transform="matrix(22.592454,-2.1853495,18.778802,15.922344,137.24863,107.66636)"
           id="g4307" />
        <g
           transform="matrix(22.592454,-2.1853495,18.778802,15.922344,137.24863,107.66636)"
           id="g4309" />
        <ellipse
           ry="248.05263"
           rx="264.55588"
           cy="437.86914"
           cx="481.5816"
           id="path4491"
           style="fill:#ffffff;fill-opacity:1;fill-rule:nonzero;stroke:none;stroke-width:1.82420325;stroke-miterlimit:3.0999999;stroke-dasharray:none;stroke-opacity:1" />
      </g>
      <g
         inkscape:label="texte"
         id="layer3">
        <text
           transform="scale(0.96530534,1.0359416)"
           sodipodi:linespacing="125%"
           id="text5965"
           y="457.51764"
           x="267.82794"
           style="font-style:normal;font-variant:normal;font-weight:bold;font-stretch:normal;font-size:242.79670715px;line-height:125%;font-family:'Berlin Sans FB Demi';-inkscape-font-specification:'Berlin Sans FB Demi, Bold';text-align:start;letter-spacing:0px;word-spacing:0px;writing-mode:lr-tb;text-anchor:start;display:inline;fill:#006bb6;fill-opacity:1;stroke:none;stroke-width:1px;stroke-linecap:butt;stroke-linejoin:miter;stroke-opacity:1"
           xml:space="preserve"><tspan
             y="457.51764"
             x="267.82794"
             id="tspan5967"
             sodipodi:role="line">IGO</tspan></text>
      </g>
    </g>
  </g>
</svg>
